.
 
http://www.scenetime.com    -  Hottest private tracker on the net. !!!

Sign up will close shortly !!  Join now 

        Seed back for speed


...................................NFO:.................................................








































          
          
              
              
                    
                    
                    
                    

X-Men.First.Class.2011.BRRip.Xvid.AC3-SiC

Poster:
[img]http://img51.imageshack.us/img51/8608/6evdaf6yxwjlnp6ss32.jpg[/img]

IMDB Link:
http://www.imdb.com/title/tt1270798/

Description:
In 1962, the United States government enlists the help of Mutants with 
superhuman abilities to stop a malicious dictator who is determined to 
start world war III.

MediaInfo:
General
Complete name                    : X-Men.First.Class.2011.BRRip.Xvid.AC3-SiC.avi
Format                           : AVI
Format/Info                      : Audio Video Interleave
File size                        : 1.30 GiB
Duration                         : 2h 11mn
Overall bit rate                 : 1 413 Kbps

Video
ID                               : 0
Format                           : MPEG-4 Visual
Format profile                   : Advanced Simple@L5
Format settings, BVOP            : Yes
Format settings, QPel            : No
Format settings, GMC             : No warppoints
Format settings, Matrix          : Default (H.263)
Muxing mode                      : Packed bitstream
Codec ID                         : XVID
Codec ID/Hint                    : XviD
Duration                         : 2h 11mn
Bit rate                         : 1 021 Kbps
Width                            : 720 pixels
Height                           : 304 pixels
Display aspect ratio             : 2.35:1
Frame rate                       : 23.976 fps
Resolution                       : 8 bits
Colorimetry                      : 4:2:0
Scan type                        : Progressive
Bits/(Pixel*Frame)               : 0.195
Stream size                      : 962 MiB (72%)
Writing library                  : XviD 64

Audio
ID                               : 1
Format                           : AC-3
Format/Info                      : Audio Coding 3
Format_Settings_ModeExtension    : CM (complete main)
Codec ID                         : 2000
Duration                         : 2h 11mn
Bit rate mode                    : Constant
Bit rate                         : 384 Kbps
Channel(s)                       : 6 channels
Channel positions                : Front: L C R, Side: L R, LFE
Sampling rate                    : 48.0 KHz
Stream size                      : 362 MiB (27%)
Alignment                        : Aligned on interleaves
Interleave, duration             : 64 ms (1.53 video frames)
Interleave, preload duration     : 192 ms
Title                            : 6ch English

Screenshots:
[img]http://img546.imageshack.us/img546/2362/vlcsnap2011082519h49m22.png[/img]
[img]http://img822.imageshack.us/img822/6286/vlcsnap2011082519h50m45.png[/img]
[img]http://img856.imageshack.us/img856/4458/xmenfirstclass2011brrip.png[/img]
[img]http://img534.imageshack.us/img534/4458/xmenfirstclass2011brrip.png[/img]
[img]http://img822.imageshack.us/img822/4458/xmenfirstclass2011brrip.png[/img]
[img]http://img221.imageshack.us/img221/4131/vlcsnap2011082519h50m29jozmp.png[/img]
[img]http://img825.imageshack.us/img825/4458/xmenfirstclass2011brrip.png[/img]
[img]http://img577.imageshack.us/img577/1977/vlcsnap2011082519h49m59.png[/img]

Note : if you want to cheak the subs ;) watch the sample we hope you enjoy

Subtitles : Hardcoded English Subs for non English parts

Source : BluRay-HDChina Thanks!!!

Encoder: Bezauk

Enjoy!

Respects to CaptainHomey, Cyanide, CM8, Rx, THC, ELEKTRI4KA, 
Killerhz, PA, YeFsTe, BoxSlots, MrRep and everyone in the struggle...